<svg xmlns="http://www.w3.org/2000/svg" viewBox="0 0 256 256" width="256" height="256" role="img" aria-label="A">
  <defs>
    <linearGradient id="g" x1="0" y1="0" x2="1" y2="1">
      <stop offset="0" stop-color="#7c3aed"/>
      <stop offset="0.55" stop-color="#22c55e"/>
      <stop offset="1" stop-color="#06b6d4"/>
    </linearGradient>
    <filter id="shadow" x="-20%" y="-20%" width="140%" height="140%">
      <feDropShadow dx="0" dy="10" stdDeviation="10" flood-color="#000" flood-opacity="0.45"/>
    </filter>
    <mask id="cut">
      <rect width="256" height="256" fill="#fff"/>
      <!-- Cutout triangle inside the A -->
      <path d="M128 104 L158 160 L98 160 Z" fill="#000"/>
    </mask>
  </defs>

  <!-- Background -->
  <rect x="0" y="0" width="256" height="256" rx="56" fill="#0b1220"/>

  <!-- Accent ring -->
  <rect x="18" y="18" width="220" height="220" rx="48" fill="none" stroke="#1f2a44" stroke-width="6"/>

  <!-- Stylized A -->
  <g filter="url(#shadow)">
    <path
      mask="url(#cut)"
      fill="url(#g)"
      d="M128 40
         C133 40 137 42 140 47
         L218 206
         C221 212 221 217 218 221
         C215 225 210 228 204 228
         L186 228
         C180 228 175 225 172 220
         L156 188
         L100 188
         L84 220
         C81 225 76 228 70 228
         L52 228
         C46 228 41 225 38 221
         C35 217 35 212 38 206
         L116 47
         C119 42 123 40 128 40
         Z

         M128 84
         L110 146
         L146 146
         Z"/>

    <!-- Crossbar highlight -->
    <rect x="86" y="158" width="84" height="18" rx="9" fill="#e2e8f0" opacity="0.12"/>
  </g>
</svg>
